<svg xmlns="http://www.w3.org/2000/svg" width="512" height="512" viewBox="0 0 512 512">
  <defs>
    <!-- Background: keep the same "奶油/焦糖" vibe as App.vue so the icon feels native. -->
    <radialGradient id="bgA" gradientUnits="userSpaceOnUse" cx="0" cy="0" r="1" gradientTransform="translate(102 -52) scale(600)">
      <stop offset="0" stop-color="#FFD888" stop-opacity="0.35" />
      <stop offset="0.60" stop-color="#FFD888" stop-opacity="0" />
    </radialGradient>
    <radialGradient id="bgB" gradientUnits="userSpaceOnUse" cx="0" cy="0" r="1" gradientTransform="translate(461 0) scale(520)">
      <stop offset="0" stop-color="#FF9B5C" stop-opacity="0.22" />
      <stop offset="0.55" stop-color="#FF9B5C" stop-opacity="0" />
    </radialGradient>
  </defs>

  <rect width="512" height="512" fill="#FFFAF2" />
  <rect width="512" height="512" fill="url(#bgA)" />
  <rect width="512" height="512" fill="url(#bgB)" />

  <!-- Bottle: inline naiping1.svg content in its own viewBox so gradients scale correctly. -->
  <svg x="148" y="96" width="216" height="320" viewBox="0 0 27.808349609375 41.3626708984375">
    <defs>
      <filter id="master_svg0_70_17245" filterUnits="objectBoundingBox" color-interpolation-filters="sRGB" x="-0.08614915159026572" y="0" width="1.0861491515902657" height="1.1200871344522254">
        <feFlood flood-opacity="0" result="BackgroundImageFix" />
        <feColorMatrix in="SourceAlpha" type="matrix" values="0 0 0 0 0 0 0 0 0 0 0 0 0 0 0 0 0 0 127 0" />
        <feOffset dy="2" dx="-3" />
        <feGaussianBlur stdDeviation="0" />
        <feColorMatrix type="matrix" values="0 0 0 0 0 0 0 0 0 0 0 0 0 0 0 0 0 0 1 0" />
        <feBlend mode="normal" in2="BackgroundImageFix" result="effect1_dropShadow" />
        <feBlend mode="normal" in="SourceGraphic" in2="effect1_dropShadow" result="shape" />
      </filter>
      <radialGradient cx="0" cy="0" r="1" gradientUnits="userSpaceOnUse" id="master_svg1_70_12781" gradientTransform="translate(19.55729376190311 39.955947969558565) rotate(84.96454968051931) scale(12.138645359814232 22.647163974231187)">
        <stop offset="0%" stop-color="#FFFFFF" stop-opacity="1" />
        <stop offset="38.57142925262451%" stop-color="#FFF06D" stop-opacity="1" />
        <stop offset="53.57142686843872%" stop-color="#FFD919" stop-opacity="1" />
        <stop offset="85.00000238418579%" stop-color="#FFB22E" stop-opacity="1" />
      </radialGradient>
    </defs>

    <g>
      <g transform="matrix(0.258819043636322,-0.9659258127212524,0.9659258127212524,0.258819043636322,-31.915087042328196,25.680916250117832)" filter="url(#master_svg0_70_17245)">
        <path d="M35.59983105228835,41.96401310878906Q35.59983105228835,42.699852008789065,35.28058305228836,42.97588060878906Q34.96133905228835,43.251823408789065,34.66664605228836,43.297679908789064Q34.126385052288356,43.343670808789064,33.880807052288354,43.205903008789065Q33.63523505228835,43.067932108789066,33.14408605228835,43.205903008789065Q32.898511052288356,43.297883008789064,32.57926205228836,43.50475980878906Q32.260014052288355,43.711717008789066,32.06355505228835,44.309548008789065Q31.867097052288354,44.95340800878906,31.474175052288352,45.71233700878906Q31.081256052288353,46.471171008789064,30.148072052288352,47.11483600878906Q29.853383052288354,47.29879800878906,29.460463052288354,47.45987200878906Q29.067544052288355,47.62083600878906,28.674624052288355,47.712837008789066Q28.232588052288353,47.850806008789064,27.839688052288352,47.89668000878906L27.839688052288352,36.031344908789066Q28.183491052288353,36.077335108789065,28.527280052288354,36.169300508789064Q28.821969052288352,36.26128080878906,29.165774052288352,36.35343480878906Q29.509579052288352,36.445415708789064,29.902497052288354,36.67523410878906Q30.590106052288352,37.04315420878906,31.179486052288354,37.82505700878906Q31.768866052288352,38.606886908789065,32.01443905228835,39.388746708789064Q32.260014052288355,40.170577508789066,32.43191605228836,40.28560300878906Q32.603820052288356,40.40057800878906,32.898511052288356,40.630346308789065Q33.144082052288354,40.81430720878906,33.56156205228835,40.76830290878906Q33.97903905228836,40.72231200878906,34.37195705228835,40.630346308789065Q35.010453052288355,40.49237440878906,35.30514205228835,40.97537950878906Q35.59983105228835,41.45827530878906,35.59983105228835,41.96401310878906ZM24.440709052288355,50.15031100878906Q22.328770052288352,50.15031100878906,22.328770052288352,48.17274100878906L22.328770052288352,35.75544740878906Q22.328770052288352,33.777877808789064,24.440713052288352,33.777877808789064Q25.423009052288354,33.777877808789064,25.963273052288354,34.35275184878906Q26.503537052288355,34.92762590878906,26.503537052288355,35.75544590878906L26.503537052288355,48.17274100878906Q26.503537052288355,49.184525008789066,25.889599052288354,49.66741800878906Q25.275662052288354,50.15031100878906,24.440709052288355,50.15031100878906ZM21.172951052288354,36.03628350878906C21.172951052288354,34.711031008789064,20.098622052288352,33.63670158386206,18.773369052288352,33.63670158386206L9.103793852288353,33.63670158386206C4.504759552288354,33.63670158386206,0.7765071066093534,37.36495400878906,0.7765071066093534,41.96398830878906C0.7765071066093534,46.56302300878906,4.504759552288354,50.29127500878906,9.103793852288353,50.29127500878906L18.773369052288352,50.29127500878906C20.098622052288352,50.29127500878906,21.172951052288354,49.216946008789066,21.172951052288354,47.89169300878906L21.172951052288354,36.03628350878906Z" fill="url(#master_svg1_70_12781)" fill-opacity="1" />
      </g>
    </g>
  </svg>
</svg>

