<svg xmlns="http://www.w3.org/2000/svg" xmlns:xlink="http://www.w3.org/1999/xlink" fill="none" version="1.1" width="26" height="40" viewBox="0 0 26 40"><g><g transform="matrix(0.258819043636322,-0.9659258127212524,0.9659258127212524,0.258819043636322,-32.84147763252258,25.20015251636505)"><path d="M34.82312,42.327248600000004Q34.82312,43.0630875,34.503872,43.3391161Q34.184628,43.6150589,33.889935,43.6609154Q33.349674,43.7069063,33.104095,43.5691385Q32.858524,43.4311676,32.367374,43.5691385Q32.121799,43.6611185,31.802551,43.867995300000004Q31.483303,44.074951999999996,31.286844,44.672784Q31.090385,45.316644,30.697464,46.075573Q30.304544,46.834407,29.371361,47.478071Q29.076672,47.662033,28.683752,47.823108Q28.290833,47.984072,27.897913,48.076073Q27.455877,48.214042,27.062977,48.259915L27.062977,36.3945804Q27.40678,36.4405706,27.750568,36.532536Q28.045258,36.6245162,28.389063,36.7166703Q28.732868,36.8086512,29.125786,37.0384696Q29.813395,37.4063897,30.402775,38.1882925Q30.992155,38.9701223,31.237728,39.7519822Q31.483303,40.533813,31.655205,40.6488385Q31.827108,40.7638135,32.121799,40.9935818Q32.367371,41.177542700000004,32.784851,41.1315384Q33.202328,41.0855474,33.595245,40.9935818Q34.233742,40.8556099,34.528431,41.338614899999996Q34.82312,41.8215108,34.82312,42.327248600000004ZM23.663998,50.513546000000005Q21.552059,50.513546000000005,21.552059,48.535976L21.552059,36.1186829Q21.552059,34.14111328,23.664001,34.14111328Q24.646297,34.14111328,25.186562,34.715987319999996Q25.726826,35.2908614,25.726826,36.1186814L25.726826,48.535976Q25.726826,49.54776,25.112888,50.030653Q24.498951,50.513546000000005,23.663998,50.513546000000005ZM20.396484,36.3995495C20.396484,35.074297,19.322155,33.999967575073,17.996902,33.999967575073L8.3273268,33.999967575073C3.7282925,33.999967575073,0.000040054321,37.72822,0.000040054321,42.3272543C0.000040054321,46.926289,3.7282925,50.654540999999995,8.3273268,50.654540999999995L17.996902,50.654540999999995C19.322155,50.654540999999995,20.396484,49.580212,20.396484,48.254959L20.396484,36.3995495Z" fill="#D8D8D8" fill-opacity="0.10000000149011612"/><path d="M32.367378,43.5691395Q32.858528,43.4311676,33.104095,43.5691395Q33.349678,43.7069073,33.889935,43.6609154Q34.184628,43.6150589,34.503872,43.339117099999996Q34.82312,43.0630875,34.82312,42.3272495Q34.82312,41.8215113,34.528435,41.338614899999996Q34.233742,40.8556099,33.595245,40.9935818Q33.202328,41.0855474,32.784851,41.1315384Q32.367371,41.177542700000004,32.121803,40.9935818Q31.827108,40.763813999999996,31.655205,40.648839Q31.483303,40.533813,31.237728,39.7519827Q30.992155,38.9701223,30.402777,38.1882925Q29.813396,37.40639,29.125786,37.0384698Q28.73287,36.8086514,28.389065,36.7166705Q28.220093,36.6713791,28.062979,36.6261277Q27.900421,36.579308499999996,27.75057,36.532536Q27.40678,36.4405706,27.062979,36.3945804L27.062979,48.259916000000004Q27.455877,48.214042,27.897915,48.076073Q27.980442,48.056748999999996,28.062979,48.034380999999996Q28.373365,47.950262,28.683752,47.823108Q29.076672,47.662033,29.371361,47.478071Q30.304546,46.834407,30.697464,46.075573Q31.090385,45.316645,31.286846,44.672785Q31.483303,44.074953,31.802551,43.867995300000004Q32.121803,43.6611195,32.367378,43.5691395ZM28.823215,46.641284Q29.535065,46.14567,29.809423,45.615807000000004Q30.16049,44.937720999999996,30.336826,44.360594Q30.643391,43.4276962,31.258739,43.0287886Q31.669228,42.7627878,32.016624,42.6326714L32.056221,42.6178398L32.096931,42.6064043Q32.987053,42.3563557,33.593357,42.6970015Q33.541634,42.667985,33.539345,42.6677179Q33.617393,42.6768322,33.743717,42.669054Q33.757957,42.6600189,33.794834,42.629406Q33.82312,42.5238724,33.82312,42.3272495Q33.82312,42.1614733,33.742386,41.9856982Q33.329063,42.077635799999996,32.894382,42.1255226Q32.084099,42.2148113,31.506924,41.7822037Q31.240925,41.5748081,31.099087,41.4799423Q30.634716,41.1692171,30.28368,40.0516372Q30.089794,39.4343414,29.604229,38.790221700000004Q29.147421,38.1841989,28.654005,37.920185599999996L28.63728,37.9112356L28.620903,37.9016578Q28.344276,37.7398577,28.130163,37.682574Q28.096375,37.6735172,28.062979,37.6644459L28.062979,46.988794999999996Q28.183456,46.947402,28.304443,46.897838Q28.605957,46.774235,28.823215,46.641284ZM17.996902,33.999967575073C19.322155,33.999967575073,20.396484,35.074297,20.396484,36.3995495L20.396484,48.254959C20.396484,49.580212,19.322155,50.654540999999995,17.996902,50.654540999999995L8.3273268,50.654540999999995C3.7282925,50.654540999999995,0.000040054321,46.926289,0.000040054321,42.3272543C0.000040054321,37.72822,3.7282925,33.999967575073,8.3273268,33.999967575073L17.996902,33.999967575073ZM21.552059,48.535976Q21.552059,50.513546000000005,23.663998,50.513546000000005Q24.498953,50.513546000000005,25.11289,50.030653Q25.726828,49.54776,25.726828,48.535976L25.726828,36.1186814Q25.726828,35.2908614,25.186562,34.71598738Q24.646297,34.14111328,23.664001,34.14111328Q21.552059,34.14111328,21.552059,36.1186829L21.552059,48.535976ZM18.986557,35.4098963Q19.396484,35.8198242,19.396484,36.3995495L19.396484,48.254959Q19.396484,48.834686,18.986557,49.244614Q18.57663,49.654541,17.996902,49.654541L8.3273268,49.654541Q5.2922645,49.654541,3.1461525,47.508430000000004Q1.0000401,45.362318,1.0000401,42.3272543Q1.0000404,39.2921925,3.1461525,37.14608Q5.2922654,34.99996758,8.3273268,34.99996758L17.996899,34.99996758Q18.576628,34.99996758,18.986557,35.4098963ZM24.494663,49.244654Q24.152802,49.513546,23.663998,49.513546Q22.552059,49.513546,22.552059,48.535976L22.552059,36.1186829Q22.552059,35.1411133,23.664001,35.1411133Q24.213789,35.1411133,24.457861,35.4008192Q24.726828,35.6870154,24.726828,36.1186814L24.726828,48.535976Q24.726828,49.062044,24.494663,49.244654Z" fill-rule="evenodd" fill="#5A5A5A" fill-opacity="0.4000000059604645"/></g></g></svg>


