<svg xmlns="http://www.w3.org/2000/svg" xmlns:xlink="http://www.w3.org/1999/xlink" fill="none" version="1.1" width="318" height="51" viewBox="0 0 318 51"><g><g><path d="M25.5,0C11.416739,0,0,11.416739,0,25.5C0,39.58326,11.416739,51,25.5,51C33.408249,51,40.475685,47.400051,45.152954,41.749508C47.070652,39.432758,52.92934,39.432758,54.847042,41.749504C59.524315,47.400051,66.591751,51,74.5,51L292.5,51C306.58325,51,318,39.58326,318,25.5C318,11.416739,306.58325,0,292.5,0L74.5,0C66.591751,0,59.524315,3.5999477,54.847046,9.2504911C52.92934,11.567238,47.070652,11.567238,45.15295,9.2504911C40.475685,3.5999477,33.408249,0,25.5,0Z" fill-rule="evenodd" fill="#27201A" fill-opacity="1"/></g></g></svg>


